<mxfile host="app.diagrams.net" modified="2023-10-12T23:19:39.363Z" agent="Mozilla/5.0 (X11; Linux x86_64) AppleWebKit/537.36 (KHTML, like Gecko) Chrome/118.0.0.0 Safari/537.36" etag="XI7CQN2P8VRmhA_2ak3o" version="22.0.4" type="device">
  <diagram name="PÃ¡gina-1" id="p4Ip4B4rRUvrHgqFMGFt">
    <mxGraphModel dx="607" dy="1504" grid="1" gridSize="10" guides="1" tooltips="1" connect="1" arrows="1" fold="1" page="1" pageScale="1" pageWidth="827" pageHeight="1169" math="0" shadow="0">
      <root>
        <mxCell id="0" />
        <mxCell id="1" parent="0" />
        <mxCell id="4cEcGu51_kYmn60wcHyY-19" style="edgeStyle=orthogonalEdgeStyle;rounded=0;orthogonalLoop=1;jettySize=auto;html=1;dashed=1;endArrow=open;endFill=0;endSize=10;" edge="1" parent="1" source="4cEcGu51_kYmn60wcHyY-1" target="4cEcGu51_kYmn60wcHyY-7">
          <mxGeometry relative="1" as="geometry" />
        </mxCell>
        <mxCell id="4cEcGu51_kYmn60wcHyY-20" style="edgeStyle=orthogonalEdgeStyle;rounded=0;orthogonalLoop=1;jettySize=auto;html=1;endSize=10;endArrow=block;endFill=0;" edge="1" parent="1" source="4cEcGu51_kYmn60wcHyY-1" target="4cEcGu51_kYmn60wcHyY-11">
          <mxGeometry relative="1" as="geometry">
            <Array as="points">
              <mxPoint x="220" y="120" />
              <mxPoint x="220" y="120" />
            </Array>
          </mxGeometry>
        </mxCell>
        <mxCell id="4cEcGu51_kYmn60wcHyY-21" style="edgeStyle=orthogonalEdgeStyle;rounded=0;orthogonalLoop=1;jettySize=auto;html=1;dashed=1;endArrow=open;endFill=0;endSize=10;" edge="1" parent="1" source="4cEcGu51_kYmn60wcHyY-1" target="4cEcGu51_kYmn60wcHyY-9">
          <mxGeometry relative="1" as="geometry">
            <Array as="points">
              <mxPoint x="340" y="-20" />
              <mxPoint x="310" y="-20" />
            </Array>
          </mxGeometry>
        </mxCell>
        <mxCell id="4cEcGu51_kYmn60wcHyY-1" value="Produto" style="swimlane;fontStyle=1;align=center;verticalAlign=top;childLayout=stackLayout;horizontal=1;startSize=26;horizontalStack=0;resizeParent=1;resizeParentMax=0;resizeLast=0;collapsible=0;marginBottom=0;whiteSpace=wrap;html=1;" vertex="1" parent="1">
          <mxGeometry x="280" y="100" width="70" height="34" as="geometry" />
        </mxCell>
        <mxCell id="4cEcGu51_kYmn60wcHyY-3" value="" style="line;strokeWidth=1;fillColor=none;align=left;verticalAlign=middle;spacingTop=-1;spacingLeft=3;spacingRight=3;rotatable=0;labelPosition=right;points=[];portConstraint=eastwest;strokeColor=inherit;" vertex="1" parent="4cEcGu51_kYmn60wcHyY-1">
          <mxGeometry y="26" width="70" height="8" as="geometry" />
        </mxCell>
        <mxCell id="4cEcGu51_kYmn60wcHyY-15" style="edgeStyle=orthogonalEdgeStyle;rounded=0;orthogonalLoop=1;jettySize=auto;html=1;dashed=1;endArrow=open;endFill=0;endSize=10;" edge="1" parent="1" source="4cEcGu51_kYmn60wcHyY-5" target="4cEcGu51_kYmn60wcHyY-1">
          <mxGeometry relative="1" as="geometry">
            <Array as="points">
              <mxPoint x="300" y="190" />
              <mxPoint x="300" y="190" />
            </Array>
          </mxGeometry>
        </mxCell>
        <mxCell id="4cEcGu51_kYmn60wcHyY-16" style="edgeStyle=orthogonalEdgeStyle;rounded=0;orthogonalLoop=1;jettySize=auto;html=1;endArrow=open;endFill=0;endSize=10;" edge="1" parent="1" source="4cEcGu51_kYmn60wcHyY-5" target="4cEcGu51_kYmn60wcHyY-1">
          <mxGeometry relative="1" as="geometry">
            <Array as="points">
              <mxPoint x="330" y="180" />
              <mxPoint x="330" y="180" />
            </Array>
          </mxGeometry>
        </mxCell>
        <mxCell id="4cEcGu51_kYmn60wcHyY-24" value="1" style="edgeLabel;html=1;align=center;verticalAlign=middle;resizable=0;points=[];" vertex="1" connectable="0" parent="4cEcGu51_kYmn60wcHyY-16">
          <mxGeometry x="0.3477" y="-1" relative="1" as="geometry">
            <mxPoint x="4" y="-2" as="offset" />
          </mxGeometry>
        </mxCell>
        <mxCell id="4cEcGu51_kYmn60wcHyY-17" style="edgeStyle=orthogonalEdgeStyle;rounded=0;orthogonalLoop=1;jettySize=auto;html=1;dashed=1;endSize=10;endArrow=open;endFill=0;" edge="1" parent="1" source="4cEcGu51_kYmn60wcHyY-5" target="4cEcGu51_kYmn60wcHyY-7">
          <mxGeometry relative="1" as="geometry">
            <Array as="points">
              <mxPoint x="420" y="217" />
            </Array>
          </mxGeometry>
        </mxCell>
        <mxCell id="4cEcGu51_kYmn60wcHyY-18" style="edgeStyle=orthogonalEdgeStyle;rounded=0;orthogonalLoop=1;jettySize=auto;html=1;endArrow=block;endFill=0;endSize=10;" edge="1" parent="1" source="4cEcGu51_kYmn60wcHyY-5" target="4cEcGu51_kYmn60wcHyY-11">
          <mxGeometry relative="1" as="geometry" />
        </mxCell>
        <mxCell id="4cEcGu51_kYmn60wcHyY-5" value="ProdutoProxy" style="swimlane;fontStyle=1;align=center;verticalAlign=top;childLayout=stackLayout;horizontal=1;startSize=26;horizontalStack=0;resizeParent=1;resizeParentMax=0;resizeLast=0;collapsible=0;marginBottom=0;whiteSpace=wrap;html=1;" vertex="1" parent="1">
          <mxGeometry x="270" y="200" width="90" height="34" as="geometry" />
        </mxCell>
        <mxCell id="4cEcGu51_kYmn60wcHyY-6" value="" style="line;strokeWidth=1;fillColor=none;align=left;verticalAlign=middle;spacingTop=-1;spacingLeft=3;spacingRight=3;rotatable=0;labelPosition=right;points=[];portConstraint=eastwest;strokeColor=inherit;" vertex="1" parent="4cEcGu51_kYmn60wcHyY-5">
          <mxGeometry y="26" width="90" height="8" as="geometry" />
        </mxCell>
        <mxCell id="4cEcGu51_kYmn60wcHyY-7" value="Funcionario" style="swimlane;fontStyle=1;align=center;verticalAlign=top;childLayout=stackLayout;horizontal=1;startSize=26;horizontalStack=0;resizeParent=1;resizeParentMax=0;resizeLast=0;collapsible=0;marginBottom=0;whiteSpace=wrap;html=1;" vertex="1" parent="1">
          <mxGeometry x="380" y="100" width="80" height="34" as="geometry" />
        </mxCell>
        <mxCell id="4cEcGu51_kYmn60wcHyY-8" value="" style="line;strokeWidth=1;fillColor=none;align=left;verticalAlign=middle;spacingTop=-1;spacingLeft=3;spacingRight=3;rotatable=0;labelPosition=right;points=[];portConstraint=eastwest;strokeColor=inherit;" vertex="1" parent="4cEcGu51_kYmn60wcHyY-7">
          <mxGeometry y="26" width="80" height="8" as="geometry" />
        </mxCell>
        <mxCell id="4cEcGu51_kYmn60wcHyY-13" style="edgeStyle=orthogonalEdgeStyle;rounded=0;orthogonalLoop=1;jettySize=auto;html=1;endSize=10;dashed=1;endArrow=open;endFill=0;" edge="1" parent="1" source="4cEcGu51_kYmn60wcHyY-9" target="4cEcGu51_kYmn60wcHyY-1">
          <mxGeometry relative="1" as="geometry">
            <Array as="points">
              <mxPoint x="320" y="70" />
              <mxPoint x="320" y="70" />
            </Array>
          </mxGeometry>
        </mxCell>
        <mxCell id="4cEcGu51_kYmn60wcHyY-14" style="edgeStyle=orthogonalEdgeStyle;rounded=0;orthogonalLoop=1;jettySize=auto;html=1;endSize=10;endArrow=open;endFill=0;" edge="1" parent="1" source="4cEcGu51_kYmn60wcHyY-9" target="4cEcGu51_kYmn60wcHyY-1">
          <mxGeometry relative="1" as="geometry">
            <Array as="points">
              <mxPoint x="300" y="70" />
              <mxPoint x="300" y="70" />
            </Array>
          </mxGeometry>
        </mxCell>
        <mxCell id="4cEcGu51_kYmn60wcHyY-23" value="0..*" style="edgeLabel;html=1;align=center;verticalAlign=middle;resizable=0;points=[];" vertex="1" connectable="0" parent="4cEcGu51_kYmn60wcHyY-14">
          <mxGeometry x="0.6148" y="1" relative="1" as="geometry">
            <mxPoint x="-13" y="-10" as="offset" />
          </mxGeometry>
        </mxCell>
        <mxCell id="4cEcGu51_kYmn60wcHyY-9" value="BD" style="swimlane;fontStyle=1;align=center;verticalAlign=top;childLayout=stackLayout;horizontal=1;startSize=26;horizontalStack=0;resizeParent=1;resizeParentMax=0;resizeLast=0;collapsible=0;marginBottom=0;whiteSpace=wrap;html=1;" vertex="1" parent="1">
          <mxGeometry x="295" y="10" width="30" height="34" as="geometry" />
        </mxCell>
        <mxCell id="4cEcGu51_kYmn60wcHyY-10" value="" style="line;strokeWidth=1;fillColor=none;align=left;verticalAlign=middle;spacingTop=-1;spacingLeft=3;spacingRight=3;rotatable=0;labelPosition=right;points=[];portConstraint=eastwest;strokeColor=inherit;" vertex="1" parent="4cEcGu51_kYmn60wcHyY-9">
          <mxGeometry y="26" width="30" height="8" as="geometry" />
        </mxCell>
        <mxCell id="4cEcGu51_kYmn60wcHyY-11" value="&amp;lt;&amp;lt;interface&amp;gt;&amp;gt;&lt;br&gt;IProduto" style="swimlane;fontStyle=1;align=center;verticalAlign=top;childLayout=stackLayout;horizontal=1;startSize=40;horizontalStack=0;resizeParent=1;resizeParentMax=0;resizeLast=0;collapsible=0;marginBottom=0;whiteSpace=wrap;html=1;" vertex="1" parent="1">
          <mxGeometry x="160" y="93" width="90" height="48" as="geometry" />
        </mxCell>
        <mxCell id="4cEcGu51_kYmn60wcHyY-12" value="" style="line;strokeWidth=1;fillColor=none;align=left;verticalAlign=middle;spacingTop=-1;spacingLeft=3;spacingRight=3;rotatable=0;labelPosition=right;points=[];portConstraint=eastwest;strokeColor=inherit;" vertex="1" parent="4cEcGu51_kYmn60wcHyY-11">
          <mxGeometry y="40" width="90" height="8" as="geometry" />
        </mxCell>
      </root>
    </mxGraphModel>
  </diagram>
</mxfile>
